<svg id="visual" viewBox="0 0 900 600" width="900" height="600" xmlns="http://www.w3.org/2000/svg" xmlns:xlink="http://www.w3.org/1999/xlink" version="1.1"><rect x="0" y="0" width="900" height="600" fill="#f1f1f1"></rect><path d="M0 404L25 389.5C50 375 100 346 150 337.5C200 329 250 341 300 360.8C350 380.7 400 408.3 450 394.7C500 381 550 326 600 319.2C650 312.3 700 353.7 750 358.2C800 362.7 850 330.3 875 314.2L900 298L900 601L875 601C850 601 800 601 750 601C700 601 650 601 600 601C550 601 500 601 450 601C400 601 350 601 300 601C250 601 200 601 150 601C100 601 50 601 25 601L0 601Z" fill="#0F79B9" stroke-linecap="round" stroke-linejoin="miter"></path></svg>