<svg id="visual" viewBox="0 0 900 600" width="900" height="600" xmlns="http://www.w3.org/2000/svg" xmlns:xlink="http://www.w3.org/1999/xlink" version="1.1"><path d="M0 133L30 154C60 175 120 217 180 213C240 209 300 159 360 147C420 135 480 161 540 177C600 193 660 199 720 196C780 193 840 181 870 175L900 169L900 0L870 0C840 0 780 0 720 0C660 0 600 0 540 0C480 0 420 0 360 0C300 0 240 0 180 0C120 0 60 0 30 0L0 0Z" fill="#549ace"></path><path d="M0 235L30 253C60 271 120 307 180 305C240 303 300 263 360 251C420 239 480 255 540 262C600 269 660 267 720 260C780 253 840 241 870 235L900 229L900 167L870 173C840 179 780 191 720 194C660 197 600 191 540 175C480 159 420 133 360 145C300 157 240 207 180 211C120 215 60 173 30 152L0 131Z" fill="#2e84c0"></path><path d="M0 397L30 411C60 425 120 453 180 451C240 449 300 417 360 399C420 381 480 377 540 386C600 395 660 417 720 410C780 403 840 367 870 349L900 331L900 227L870 233C840 239 780 251 720 258C660 265 600 267 540 260C480 253 420 237 360 249C300 261 240 301 180 303C120 305 60 269 30 251L0 233Z" fill="#096ea8"></path><path d="M0 601L30 601C60 601 120 601 180 601C240 601 300 601 360 601C420 601 480 601 540 601C600 601 660 601 720 601C780 601 840 601 870 601L900 601L900 329L870 347C840 365 780 401 720 408C660 415 600 393 540 384C480 375 420 379 360 397C300 415 240 447 180 449C120 451 60 423 30 409L0 395Z" fill="#035987"></path></svg>